# Created by FreeCAD <https://www.freecad.org>
v 0.000006 211.699997 -0.000003
v 90.799995 211.699997 -0.000003
v 90.799995 0.000002 -0.000003
v 0.000006 0.000002 -0.000003
v 90.799995 0.000002 12.999997
v 0.000006 0.000002 12.999997
v 90.799995 208.900009 12.999997
v 90.799995 211.699997 12.999997
v 0.000006 211.699997 12.999997
v 0.000006 208.900009 12.999997
v 90.799995 208.900009 10.649999
v 0.000006 208.900009 10.649999
v 90.799995 210.300003 9.249997
v 0.000006 210.300003 9.249997
v 90.799995 210.300003 6.350003
v 0.000006 210.300003 6.350003
v 88.400002 208.900009 4.950002
v 0.000006 208.900009 4.950002
v 90.799995 208.900009 4.950002
v 88.400002 2.799997 4.950002
v 0.000006 2.799997 4.950002
v 0.000006 1.400003 6.350003
v 90.799995 1.400003 6.350003
v 90.799995 2.799997 4.950002
v 90.799995 1.400003 9.249997
v 0.000006 1.400003 9.249997
v 90.799995 2.799997 10.649999
v 0.000006 2.799997 10.649999
v 90.799995 2.799997 12.999997
v 0.000006 2.799997 12.999997
v 88.400002 2.799997 2.999997
v 0.000006 2.799997 2.999997
v 90.799995 96.849998 2.499997
v 87.900002 95.650002 2.499997
v 90.799995 95.650002 2.499997
v 87.900002 96.849998 2.499997
v 88.400002 95.650002 2.999997
v 87.900002 95.650002 2.999997
v 90.799995 95.650002 9.399999
v 88.400002 95.650002 9.399999
v 33.400002 56.649998 2.999997
v 87.900002 96.849998 2.999997
v 33.400002 59.649998 2.999997
v 88.400002 114.849998 2.999997
v 87.900002 114.849998 2.999997
v 88.400002 96.849998 2.999997
v 8.900000 56.649998 2.999997
v 8.900000 59.649998 2.999997
v 87.900002 116.050003 2.999997
v 33.400002 152.050003 2.999997
v 88.400002 116.050003 2.999997
v 88.400002 208.900009 2.999997
v 33.400002 155.050003 2.999997
v 8.900000 152.050003 2.999997
v 0.000006 208.900009 2.999997
v 8.900000 155.050003 2.999997
v 90.799995 116.050003 2.499997
v 87.900002 116.050003 2.499997
v 90.799995 116.050003 9.399999
v 88.400002 116.050003 9.399999
v 90.799995 114.849998 2.499997
v 87.900002 114.849998 2.499997
v 88.400002 2.799997 9.399999
v 88.400002 208.900009 9.399999
v 88.400002 97.150002 6.800000
v 88.400002 96.849998 9.399999
v 88.400002 97.150002 8.800000
v 88.400002 114.849998 9.399999
v 88.400002 114.550003 8.800000
v 88.400002 114.550003 6.800000
v 33.400002 56.649998 8.800000
v 8.900000 56.649998 8.800000
v 8.900000 59.649998 8.800000
v 33.400002 59.649998 8.800000
v 33.400002 152.050003 8.800000
v 8.900000 152.050003 8.800000
v 33.400002 155.050003 8.800000
v 8.900000 155.050003 8.800000
v 90.799995 208.900009 9.399999
v 90.799995 2.799997 9.399999
v 87.200005 114.550003 8.800000
v 87.200005 97.150002 8.800000
v 87.200005 114.550003 6.800000
v 87.200005 97.150002 6.800000
v 90.799995 114.849998 6.999997
v 90.799995 96.849998 6.999997
v 92.200005 114.849998 6.999997
v 92.200005 96.849998 6.999997
v 92.200005 96.849998 9.399999
v 92.200005 114.849998 9.399999
vn 0.000000 0.000000 -1.000000
vn 0.000000 0.000000 -1.000000
vn 0.000000 -1.000000 -0.000000
vn -0.000000 -1.000000 0.000000
vn 0.000000 -0.000000 1.000000
vn 0.000000 0.000000 1.000000
vn 0.000000 -1.000000 0.000000
vn 0.000000 -1.000000 0.000000
vn 0.000000 -0.707109 -0.707105
vn -0.000000 -0.707109 -0.707105
vn 0.000000 -1.000000 0.000000
vn 0.000000 -1.000000 0.000000
vn 0.000000 -0.707109 0.707105
vn 0.000000 -0.707109 0.707105
vn 0.000000 -0.707109 0.707105
vn 0.000000 0.707109 0.707105
vn 0.000000 0.707109 0.707105
vn -0.000000 0.707109 0.707105
vn 0.000000 1.000000 0.000000
vn 0.000000 1.000000 0.000000
vn 0.000000 0.707109 -0.707105
vn 0.000000 0.707109 -0.707105
vn 0.000000 -0.000000 1.000000
vn 0.000000 0.000000 1.000000
vn 0.000000 1.000000 0.000000
vn 0.000000 1.000000 0.000000
vn 0.000000 1.000000 0.000000
vn 0.000000 1.000000 0.000000
vn 0.000000 0.000000 1.000000
vn 0.000000 0.000000 1.000000
vn 0.000000 1.000000 0.000000
vn -0.000000 1.000000 0.000000
vn 0.000000 1.000000 0.000000
vn -0.000000 1.000000 0.000000
vn 0.000000 0.000000 1.000000
vn 0.000000 0.000000 1.000000
vn 0.000000 0.000000 1.000000
vn 0.000000 0.000000 1.000000
vn 0.000000 0.000000 1.000000
vn 0.000000 0.000000 1.000000
vn 0.000000 0.000000 1.000000
vn 0.000000 0.000000 1.000000
vn 0.000000 -0.000000 1.000000
vn 0.000000 0.000000 1.000000
vn 0.000000 0.000000 1.000000
vn 0.000000 0.000000 1.000000
vn 0.000000 -0.000000 1.000000
vn 0.000000 0.000000 1.000000
vn 0.000000 0.000000 1.000000
vn 0.000000 0.000000 1.000000
vn 0.000000 0.000000 1.000000
vn 0.000000 0.000000 1.000000
vn 0.000000 0.000000 1.000000
vn 0.000000 0.000000 1.000000
vn 0.000000 0.000000 1.000000
vn 0.000000 0.000000 1.000000
vn 0.000000 -1.000000 0.000000
vn -0.000000 -1.000000 0.000000
vn 0.000000 -1.000000 0.000000
vn -0.000000 -1.000000 0.000000
vn 0.000000 0.000000 1.000000
vn 0.000000 0.000000 1.000000
vn -1.000000 -0.000000 0.000000
vn -1.000000 0.000000 0.000000
vn -1.000000 0.000000 0.000000
vn 1.000000 0.000000 0.000000
vn 1.000000 -0.000000 0.000000
vn 0.000000 -1.000000 0.000000
vn 0.000000 -1.000000 0.000000
vn -1.000000 -0.000000 0.000000
vn -1.000000 0.000000 0.000000
vn -1.000000 0.000000 0.000000
vn -1.000000 0.000000 0.000000
vn -1.000000 -0.000000 0.000000
vn -1.000000 0.000000 0.000000
vn -1.000000 0.000000 0.000000
vn -1.000000 0.000000 0.000000
vn -1.000000 0.000000 0.000000
vn -1.000000 0.000000 0.000000
vn -1.000000 0.000000 -0.000000
vn 1.000000 0.000000 0.000000
vn 1.000000 -0.000000 0.000000
vn -0.000000 -1.000000 -0.000000
vn 0.000000 -1.000000 0.000000
vn -1.000000 0.000000 0.000000
vn -1.000000 0.000000 0.000000
vn -0.000000 1.000000 0.000000
vn 0.000000 1.000000 0.000000
vn 1.000000 0.000000 0.000000
vn 1.000000 -0.000000 0.000000
vn -0.000000 -1.000000 -0.000000
vn 0.000000 -1.000000 0.000000
vn 1.000000 0.000000 0.000000
vn 1.000000 -0.000000 0.000000
vn -1.000000 0.000000 0.000000
vn -1.000000 0.000000 0.000000
vn -0.000000 1.000000 0.000000
vn 0.000000 1.000000 0.000000
vn -0.000000 1.000000 0.000000
vn 0.000000 1.000000 0.000000
vn 0.000000 0.000000 1.000000
vn 0.000000 0.000000 1.000000
vn 0.000000 0.000000 1.000000
vn 0.000000 0.000000 1.000000
vn -0.000000 -1.000000 -0.000000
vn 0.000000 -1.000000 0.000000
vn 0.000000 0.000000 1.000000
vn 0.000000 0.000000 1.000000
vn -0.000000 1.000000 0.000000
vn 0.000000 1.000000 0.000000
vn 0.000000 0.000000 -1.000000
vn 0.000000 0.000000 -1.000000
vn -0.000000 -1.000000 -0.000000
vn 0.000000 -1.000000 0.000000
vn 0.000000 0.000000 1.000000
vn 0.000000 0.000000 1.000000
vn 0.000000 0.000000 1.000000
vn 0.000000 0.000000 1.000000
vn -1.000000 -0.000000 0.000000
vn -1.000000 0.000000 0.000000
vn -1.000000 0.000000 0.000000
vn -1.000000 -0.000000 0.000000
vn -1.000000 0.000000 0.000000
vn -1.000000 0.000000 0.000000
vn -1.000000 0.000000 0.000000
vn -1.000000 0.000000 0.000000
vn -1.000000 -0.000000 0.000000
vn -1.000000 0.000000 0.000000
vn -1.000000 0.000000 0.000000
vn -1.000000 0.000000 0.000000
vn -1.000000 0.000000 0.000000
vn -1.000000 0.000000 0.000000
vn -1.000000 0.000000 0.000000
vn -1.000000 0.000000 0.000000
vn 1.000000 0.000000 0.000000
vn 1.000000 -0.000000 0.000000
vn 1.000000 0.000000 0.000000
vn 1.000000 0.000000 0.000000
vn 1.000000 0.000000 -0.000000
vn 1.000000 -0.000000 0.000000
vn 1.000000 -0.000000 0.000000
vn 1.000000 0.000000 0.000000
vn 1.000000 0.000000 0.000000
vn 1.000000 0.000000 0.000000
vn 1.000000 -0.000000 0.000000
vn 1.000000 0.000000 -0.000000
vn 1.000000 -0.000000 0.000000
vn 1.000000 0.000000 0.000000
vn 1.000000 0.000000 -0.000000
vn 1.000000 0.000000 0.000000
vn 1.000000 0.000000 0.000000
vn 1.000000 0.000000 0.000000
vn 1.000000 0.000000 0.000000
vn 1.000000 0.000000 0.000000
vn 1.000000 0.000000 0.000000
vn 1.000000 0.000000 0.000000
vn 0.000000 0.000000 -1.000000
vn 0.000000 0.000000 -1.000000
vn 1.000000 0.000000 0.000000
vn 1.000000 -0.000000 0.000000
vn -0.000000 1.000000 0.000000
vn 0.000000 1.000000 0.000000
vn 0.000000 1.000000 0.000000
vn -0.000000 1.000000 0.000000
vn 0.000000 1.000000 0.000000
vn 0.000000 1.000000 0.000000
vn -0.000000 1.000000 0.000000
vn 0.000000 1.000000 0.000000
vn -0.000000 -1.000000 0.000000
vn 0.000000 -1.000000 0.000000
vn 0.000000 -1.000000 -0.000000
vn 0.000000 -1.000000 -0.000000
vn -0.000000 -1.000000 0.000000
vn 0.000000 -1.000000 0.000000
vn 0.000000 0.000000 1.000000
vn 0.000000 0.000000 1.000000
f 1//1 2//1 3//1
f 1//2 3//2 4//2
f 5//3 4//3 3//3
f 5//4 6//4 4//4
f 7//5 8//5 9//5
f 7//6 9//6 10//6
f 11//7 7//7 10//7
f 11//8 10//8 12//8
f 13//9 11//9 12//9
f 13//10 12//10 14//10
f 15//11 13//11 14//11
f 15//12 14//12 16//12
f 17//13 16//13 18//13
f 19//14 15//14 17//14
f 15//15 16//15 17//15
f 20//16 21//16 22//16
f 23//17 24//17 20//17
f 22//18 23//18 20//18
f 25//19 23//19 22//19
f 25//20 22//20 26//20
f 27//21 25//21 26//21
f 27//22 26//22 28//22
f 5//23 29//23 30//23
f 5//24 30//24 6//24
f 29//25 27//25 28//25
f 29//26 28//26 30//26
f 20//27 31//27 32//27
f 20//28 32//28 21//28
f 33//29 34//29 35//29
f 33//30 36//30 34//30
f 37//31 35//31 34//31
f 38//32 37//32 34//32
f 39//33 35//33 37//33
f 40//34 39//34 37//34
f 37//35 38//35 31//35
f 31//36 41//36 32//36
f 38//37 41//37 31//37
f 42//38 43//38 38//38
f 38//39 43//39 41//39
f 44//40 45//40 46//40
f 46//41 45//41 42//41
f 41//42 47//42 32//42
f 47//43 48//43 32//43
f 49//44 50//44 45//44
f 45//45 50//45 42//45
f 42//46 50//46 43//46
f 51//47 52//47 49//47
f 52//48 53//48 49//48
f 49//49 53//49 50//49
f 43//50 54//50 48//50
f 50//51 54//51 43//51
f 53//52 55//52 56//52
f 56//53 55//53 54//53
f 52//54 55//54 53//54
f 55//55 32//55 54//55
f 54//56 32//56 48//56
f 57//57 51//57 58//57
f 51//58 49//58 58//58
f 57//59 59//59 51//59
f 59//60 60//60 51//60
f 57//61 58//61 61//61
f 61//62 58//62 62//62
f 40//63 20//63 63//63
f 37//64 31//64 20//64
f 37//65 20//65 40//65
f 34//66 36//66 38//66
f 38//67 36//67 42//67
f 52//68 17//68 18//68
f 52//69 18//69 55//69
f 17//70 51//70 60//70
f 17//71 60//71 64//71
f 52//72 51//72 17//72
f 65//73 66//73 67//73
f 68//74 67//74 66//74
f 69//75 67//75 68//75
f 70//76 69//76 68//76
f 44//77 65//77 70//77
f 44//78 46//78 65//78
f 46//79 66//79 65//79
f 68//80 44//80 70//80
f 62//81 58//81 45//81
f 45//82 58//82 49//82
f 71//83 72//83 41//83
f 41//84 72//84 47//84
f 48//85 47//85 72//85
f 48//86 72//86 73//86
f 73//87 74//87 43//87
f 73//88 43//88 48//88
f 41//89 43//89 71//89
f 71//90 43//90 74//90
f 75//91 76//91 50//91
f 50//92 76//92 54//92
f 50//93 53//93 75//93
f 75//94 53//94 77//94
f 56//95 54//95 76//95
f 56//96 76//96 78//96
f 78//97 77//97 53//97
f 78//98 53//98 56//98
f 64//99 79//99 19//99
f 64//100 19//100 17//100
f 79//101 64//101 59//101
f 59//102 64//102 60//102
f 39//103 40//103 80//103
f 80//104 40//104 63//104
f 80//105 63//105 24//105
f 24//106 63//106 20//106
f 69//107 81//107 67//107
f 67//108 81//108 82//108
f 81//109 69//109 70//109
f 81//110 70//110 83//110
f 83//111 70//111 65//111
f 83//112 65//112 84//112
f 67//113 82//113 65//113
f 65//114 82//114 84//114
f 74//115 73//115 71//115
f 71//116 73//116 72//116
f 77//117 78//117 75//117
f 75//118 78//118 76//118
f 81//119 84//119 82//119
f 83//120 84//120 81//120
f 28//121 6//121 30//121
f 28//122 26//122 6//122
f 22//123 6//123 26//123
f 32//124 22//124 21//124
f 4//125 22//125 32//125
f 4//126 6//126 22//126
f 9//127 12//127 10//127
f 14//128 12//128 9//128
f 16//129 14//129 9//129
f 55//130 18//130 16//130
f 1//131 55//131 16//131
f 1//132 16//132 9//132
f 1//133 4//133 32//133
f 1//134 32//134 55//134
f 11//135 8//135 7//135
f 11//136 13//136 8//136
f 15//137 8//137 13//137
f 2//138 15//138 19//138
f 2//139 8//139 15//139
f 59//140 19//140 79//140
f 57//141 2//141 19//141
f 57//142 19//142 59//142
f 33//143 61//143 85//143
f 33//144 85//144 86//144
f 5//145 27//145 29//145
f 25//146 27//146 5//146
f 24//147 35//147 39//147
f 24//148 39//148 80//148
f 23//149 25//149 5//149
f 3//150 24//150 23//150
f 3//151 35//151 24//151
f 3//152 23//152 5//152
f 3//153 2//153 57//153
f 3//154 57//154 61//154
f 3//155 61//155 33//155
f 3//156 33//156 35//156
f 85//157 87//157 88//157
f 85//158 88//158 86//158
f 88//159 87//159 89//159
f 89//160 87//160 90//160
f 9//161 8//161 2//161
f 9//162 2//162 1//162
f 62//163 44//163 61//163
f 45//164 44//164 62//164
f 85//165 61//165 44//165
f 90//166 87//166 85//166
f 68//167 90//167 85//167
f 44//168 68//168 85//168
f 46//169 42//169 36//169
f 33//170 46//170 36//170
f 86//171 46//171 33//171
f 89//172 86//172 88//172
f 89//173 66//173 86//173
f 66//174 46//174 86//174
f 90//175 68//175 66//175
f 90//176 66//176 89//176
